<?xml version="1.0" encoding="utf-8" ?>
<svg xmlns="http://www.w3.org/2000/svg" xmlns:xlink="http://www.w3.org/1999/xlink" width="1024" height="1024">
	<path fill="#AC086C" transform="scale(2 2)" d="M128.055 408.807C110.361 392.632 109.121 380.667 109.13 358.759L109.13 135.003C109.131 129.579 108.85 123.92 109.445 118.537C113.676 80.2627 161.873 64.0484 187.026 93.0322C189.401 95.7678 191.375 98.868 193.617 101.718C210.009 113.967 209.231 130.502 209.236 148.679L209.25 177.585C209.24 180.332 208.458 186.154 209.226 188.525C211.99 185.766 214.284 182.507 216.765 179.493L285.561 96.7702C305.336 72.7423 316.827 78.515 345.623 78.5286L360.005 78.5108C375.683 78.4914 385.001 80.9543 390.251 97.4533C396.057 100.442 399.68 103.382 401.759 109.762C405.435 121.044 398.49 127.422 391.978 135.295L351.353 184.562C342.505 195.347 333.725 206.189 324.619 216.759C319.331 222.897 314.257 230.288 308.202 235.627C311.882 242.567 315.866 249.333 319.684 256.196L366.658 339.716C375.157 354.661 384.026 369.503 391.9 384.785C394.914 390.236 400.97 398.907 402.211 404.634C403.848 412.188 399.061 420.772 392.474 424.309C387.447 427.007 381.584 426.459 376.072 426.453L360.41 426.417C342.133 426.391 316.097 430.933 307.062 410.023C299.076 400.141 293.634 388.372 287.501 377.284L256.553 320.885C251.325 311.266 246.618 301.245 240.808 291.965C238.027 296.018 234.848 299.825 231.886 303.751L216.901 323.932C207.555 336.576 209.248 333.153 209.242 349.101L209.233 374.71C209.249 393.145 209.788 405.553 194.773 418.875C173.589 437.669 143.135 431.197 128.055 408.807Z"/>
	<path fill="#E876D1" transform="scale(2 2)" d="M390.251 97.4533C396.057 100.442 399.68 103.382 401.759 109.762C405.435 121.044 398.49 127.422 391.978 135.295L351.353 184.562C342.505 195.347 333.725 206.189 324.619 216.759C319.331 222.897 314.257 230.288 308.202 235.627C305.479 232.392 302.252 225.525 300.781 221.572C302.163 216.626 306.216 213.034 309.415 209.17L368.378 136.726C372.927 131.229 377.598 125.864 382.024 120.261C389.301 111.049 390.384 109.399 390.251 97.4533Z"/>
	<path fill="#E876D1" transform="scale(2 2)" d="M128.055 408.807C130.346 409.397 132.427 411.29 134.561 412.353C161.669 425.867 195.497 408.541 198.565 377.783C199.103 372.385 198.78 366.724 198.776 361.297L198.78 336.537C198.646 318.025 198.651 323.691 210.063 308.554C217.719 298.399 225.125 287.82 233.285 278.073C235.641 282.554 238.94 287.357 240.808 291.965C238.027 296.018 234.848 299.825 231.886 303.751L216.901 323.932C207.555 336.576 209.248 333.153 209.242 349.101L209.233 374.71C209.249 393.145 209.788 405.553 194.773 418.875C173.589 437.669 143.135 431.197 128.055 408.807Z"/>
	<path fill="#E876D1" transform="scale(2 2)" d="M391.9 384.785C394.914 390.236 400.97 398.907 402.211 404.634C403.848 412.188 399.061 420.772 392.474 424.309C387.447 427.007 381.584 426.459 376.072 426.453L360.41 426.417C342.133 426.391 316.097 430.933 307.062 410.023C308.213 410.434 309.293 411.285 310.323 411.945C321.077 418.833 330.469 416.735 342.779 416.734L358.65 416.723C363.232 416.718 367.979 416.932 372.495 416.051C382.888 414.022 391.289 403.26 391.761 392.952C391.887 390.21 391.347 387.511 391.9 384.785Z"/>
	<path fill="#E876D1" transform="scale(2 2)" d="M193.617 101.718C210.009 113.967 209.231 130.502 209.236 148.679L209.25 177.585C209.24 180.332 208.458 186.154 209.226 188.525C207.385 192.453 201.806 197.915 198.766 201.373L198.775 130.333C198.774 122.112 198.617 115.045 195.618 107.278C194.899 105.415 193.941 103.714 193.617 101.718Z"/>
	<path fill="#D30C7D" transform="scale(2 2)" d="M153.068 90.7001C166.927 89.873 179.666 99.4163 184.169 112.327C186.962 120.337 186.27 129.939 186.262 138.324L186.25 199.32C186.25 203.443 185.489 213.628 187.25 217.023C189.003 220.401 194.475 223.15 198.019 220.809C201.987 218.189 206.452 211.52 209.606 207.667L286.336 115.23C299.567 99.0624 300.494 90.6474 322.859 90.6849L358.251 90.6859C365.193 90.6515 373.143 89.074 376.89 96.6276C381.706 106.333 366.524 119.525 360.829 126.604L298.901 202.688C287.158 217.102 282.408 216.086 292.216 232.894L324.045 287.81C326.656 292.215 329.02 296.77 331.508 301.244L343.997 323.465C352.238 338.21 360.705 352.843 368.723 367.71C371.712 372.99 379.561 385.012 379.726 390.559C379.959 398.384 374.059 404.142 366.468 404.244C354.269 404.408 334.959 405.265 323.21 404.008C313.802 403.001 311.209 394.423 307.218 387.164L262.876 306.494C258.004 297.588 242.037 265.61 238.301 262.118C232.502 256.699 227.821 264.21 224.57 268.444C217.271 277.951 187.959 315.364 186.937 319.063C185.76 323.321 186.264 328.628 186.266 333.029L186.261 358.2C186.259 365.797 187.053 374.393 184.975 381.741C175.784 414.244 123.143 411.736 121.754 369.725C121.55 363.548 121.729 357.318 121.731 351.134L121.72 132.41C121.732 112.044 128.143 91.2081 153.068 90.7001Z"/>
</svg>
